<svg version="1.0" xmlns="http://www.w3.org/2000/svg" viewBox="0 0 150.000000 150.000000">
<g transform="translate(0.000000,150.000000) scale(0.100000,-0.100000)"
fill="#008000" stroke="none">
<path d="M530 1096 l0 -46 308 0 c247 0 319 -3 360 -15 103 -31 185 -122 198
-220 4 -27 11 -52 15 -55 4 -3 27 -4 49 -2 l41 4 -7 42 c-22 134 -90 229 -208
290 l-78 41 -339 3 -339 3 0 -45z"/>
<path d="M363 969 c-96 -29 -151 -97 -160 -198 -10 -106 51 -199 151 -231 38
-12 143 -9 165 5 6 3 11 31 11 61 l0 55 -22 -20 c-70 -66 -196 -14 -213 89 -9
53 24 124 68 146 38 20 119 14 147 -11 20 -18 20 -17 20 34 0 47 -2 52 -27 62
-41 15 -105 19 -140 8z"/>
<path d="M1064 960 c-43 -21 -58 -45 -69 -102 -9 -50 27 -97 94 -124 91 -37
110 -65 70 -105 -26 -26 -71 -20 -106 13 -21 20 -24 20 -48 4 -44 -29 -30 -64
44 -101 46 -23 128 -17 166 13 43 34 57 70 52 127 -4 40 -10 54 -37 76 -18 15
-55 36 -84 46 -42 15 -52 23 -54 44 -2 14 4 31 12 38 20 17 82 6 94 -16 8 -13
13 -10 32 16 21 31 21 33 5 51 -18 20 -73 40 -110 40 -11 0 -38 -9 -61 -20z"/>
<path d="M648 964 c-5 -4 -8 -101 -8 -216 l0 -208 50 0 50 0 0 75 0 75 40 0
c90 0 150 55 150 136 0 49 -32 102 -75 124 -32 16 -195 27 -207 14z m171 -99
c19 -19 17 -66 -5 -82 -10 -7 -30 -13 -46 -13 -27 0 -28 2 -28 53 0 30 3 57 6
60 9 9 56 -3 73 -18z"/>
<path d="M0 733 c0 -37 31 -139 55 -179 37 -63 104 -123 175 -158 l65 -31 373
-3 372 -3 0 45 0 45 -362 3 c-359 3 -364 3 -411 27 -88 43 -153 129 -166 220
l-6 46 -48 3 c-40 3 -47 0 -47 -15z"/>
</g>
</svg>
